<?xml version="1.0" encoding="UTF-8" standalone="no"?>
<svg
   width="76px"
   height="76px"
   viewBox="0 0 76 76"
   version="1.1"
   enable-background="new 0 0 76.00 76.00"
   xml:space="preserve"
   id="svg827"
   sodipodi:docname="fog.svg"
   inkscape:version="1.3 (0e150ed6c4, 2023-07-21)"
   xmlns:inkscape="http://www.inkscape.org/namespaces/inkscape"
   xmlns:sodipodi="http://sodipodi.sourceforge.net/DTD/sodipodi-0.dtd"
   xmlns="http://www.w3.org/2000/svg"
   xmlns:svg="http://www.w3.org/2000/svg"
   xmlns:rdf="http://www.w3.org/1999/02/22-rdf-syntax-ns#"
   xmlns:cc="http://creativecommons.org/ns#"
   xmlns:dc="http://purl.org/dc/elements/1.1/"><metadata
   id="metadata833"><rdf:RDF><cc:Work
       rdf:about=""><dc:format>image/svg+xml</dc:format><dc:type
         rdf:resource="http://purl.org/dc/dcmitype/StillImage" /></cc:Work></rdf:RDF></metadata><defs
   id="defs831" /><sodipodi:namedview
   pagecolor="#ffffff"
   bordercolor="#666666"
   borderopacity="1"
   objecttolerance="10"
   gridtolerance="10"
   guidetolerance="10"
   inkscape:pageopacity="0"
   inkscape:pageshadow="2"
   inkscape:window-width="1920"
   inkscape:window-height="1017"
   id="namedview829"
   showgrid="false"
   inkscape:zoom="8.8157895"
   inkscape:cx="38.056716"
   inkscape:cy="37.943283"
   inkscape:window-x="1912"
   inkscape:window-y="-8"
   inkscape:window-maximized="1"
   inkscape:current-layer="svg827"
   inkscape:showpageshadow="2"
   inkscape:pagecheckerboard="0"
   inkscape:deskcolor="#d1d1d1" />&#10;	<path
   d="m 49.0833,25.3334 c 4.3722,0 7.9167,3.5445 7.9167,7.9167 0,4.3722 -3.5443,7.9165 -7.9489,7.9166 l -26.0928,1e-4 C 20.7722,41.1667 19,39.3945 19,37.2084 c 0,-1.9383 1.3931,-3.5512 3.2328,-3.892 l -0.0661,-0.8581 c 0,-2.9756 2.3456,-5.4036 5.2886,-5.536 1.3026,-3.6927 4.823,-6.339 8.9614,-6.339 3.9292,0 7.3012,2.3854 8.747,5.787 1.1556,-0.6599 2.4936,-1.0369 3.9196,-1.0369 z"
   id="path825"
   inkscape:connector-curvature="0"
   style="fill:##e2e2e2;fill-opacity:0.2;stroke-width:0.2;stroke-linejoin:round"
   sodipodi:nodetypes="ssccscccscs" /><path
   style="fill:#000000;stroke:#ffffff;stroke-width:2;stroke-linecap:round;stroke-linejoin:round;stroke-dasharray:none;stroke-opacity:1"
   d="m 35.692538,32.966518 c 22.346269,-0.226866 22.346269,0 22.346269,0"
   id="path1-0-5" />&#10;<g
   inkscape:groupmode="layer"
   id="layer1"
   inkscape:label="Layer 1"><path
     style="fill:#000000;stroke:#ffffff;stroke-width:2;stroke-linecap:round;stroke-linejoin:round;stroke-dasharray:none;stroke-opacity:1"
     d="m 22.685074,28.269496 c 22.346269,-0.226866 22.346269,0 22.346269,0"
     id="path1-0" /><path
     style="fill:#000000;stroke:#ffffff;stroke-width:2;stroke-linecap:round;stroke-linejoin:round;stroke-dasharray:none;stroke-opacity:1"
     d="m 19.435821,37.453085 c 22.346269,-0.226866 22.346269,0 22.346269,0"
     id="path1-0-9" /></g></svg>
